<?xml version="1.0" encoding="iso-8859-1"?>
<!-- Generator: Adobe Illustrator 17.0.0, SVG Export Plug-In . SVG Version: 6.00 Build 0)  -->
<!DOCTYPE svg PUBLIC "-//W3C//DTD SVG 1.1//EN" "http://www.w3.org/Graphics/SVG/1.1/DTD/svg11.dtd">
<svg version="1.1" xmlns="http://www.w3.org/2000/svg" xmlns:xlink="http://www.w3.org/1999/xlink" x="0px" y="0px" width="50px"
	 height="50px" viewBox="0 0 50 50" style="enable-background:new 0 0 50 50;" xml:space="preserve">
<g id="Parallel_Space">
</g>
<g id="&#x56FE;&#x5C42;_1">
	<g>
		<defs>
			<rect id="SVGID_3_" x="11" y="11" width="28" height="28"/>
		</defs>
		<clipPath id="SVGID_2_">
			<use xlink:href="#SVGID_3_"  style="overflow:visible;"/>
		</clipPath>
		<g style="clip-path:url(#SVGID_2_);">
			<g>
				<g>
					<path style="fill:#FFFFFF;" d="M37.849,18.28c0-1.1-0.828-1.647-1.84-1.216l-3.29,1.402c-1.012,0.431-1.84,1.684-1.84,2.784
						v18.782c0,1.1,0.828,2.353,1.84,2.784l3.29,1.402c1.012,0.431,1.84-0.116,1.84-1.216V18.28z"/>
				</g>
				<g>
					<path style="fill:#FFFFFF;" d="M29.904,17.764c0-0.817-0.828-1.132-1.84-0.701l-3.604,1.535
						c-1.012,0.431-1.84,1.684-1.84,2.784v18.514c0,1.1,0.828,2.353,1.84,2.784l3.604,1.535c1.012,0.431,1.84,0.116,1.84-0.701
						s0-2.385,0-3.485V21.249C29.904,20.149,29.904,18.581,29.904,17.764z"/>
				</g>
				<g>
					<path style="fill:#FFFFFF;" d="M21.647,17.831c0-0.853-0.828-1.199-1.84-0.768l-5.693,2.425
						c-1.012,0.431-1.84,1.684-1.84,2.784v16.735c0,1.1,0.828,2.353,1.84,2.784l5.693,2.425c1.012,0.431,1.84,0.086,1.84-0.768
						s0-2.451,0-3.551V21.383C21.647,20.283,21.647,18.684,21.647,17.831z"/>
				</g>
			</g>
		</g>
	</g>
</g>
</svg>
